<svg width="24" height="20" viewBox="0 0 24 20" fill="none" xmlns="http://www.w3.org/2000/svg">
<path fill-rule="evenodd" clip-rule="evenodd" d="M9 2C7.34315 2 6 3.34315 6 5C6 6.65685 7.34315 8 9 8C10.6569 8 12 6.65685 12 5C12 3.34315 10.6569 2 9 2ZM4 5C4 2.23858 6.23858 0 9 0C11.7614 0 14 2.23858 14 5C14 7.76142 11.7614 10 9 10C6.23858 10 4 7.76142 4 5ZM15 2C14.9356 2 14.8718 2.00202 14.8086 2.00597C14.2574 2.0405 13.7826 1.62165 13.748 1.07044C13.7135 0.519239 14.1324 0.0444102 14.6836 0.00988382C14.7883 0.00332218 14.8938 0 15 0C17.7614 0 20 2.23858 20 5C20 7.76142 17.7614 10 15 10C14.8938 10 14.7883 9.99668 14.6836 9.99012C14.1324 9.95559 13.7135 9.48076 13.748 8.92955C13.7826 8.37835 14.2574 7.9595 14.8086 7.99403C14.8718 7.99798 14.9356 8 15 8C16.6568 8 18 6.65685 18 5C18 3.34315 16.6568 2 15 2ZM5 14C3.34315 14 2 15.3431 2 17V19C2 19.5523 1.55228 20 1 20C0.447715 20 0 19.5523 0 19V17C0 14.2386 2.23858 12 5 12H13C15.7614 12 18 14.2386 18 17V19C18 19.5523 17.5523 20 17 20C16.4477 20 16 19.5523 16 19V17C16 15.3431 14.6569 14 13 14H5ZM17.75 13C17.75 12.4477 18.1977 12 18.75 12H19C21.7614 12 24 14.2386 24 17V19C24 19.5523 23.5523 20 23 20C22.4477 20 22 19.5523 22 19V17C22 15.3431 20.6568 14 19 14H18.75C18.1977 14 17.75 13.5523 17.75 13Z" fill="#6826F7"/>
</svg>
