<svg width="22" height="20" viewBox="0 0 22 20" fill="none" xmlns="http://www.w3.org/2000/svg">
<path d="M20.5 8.05743C21.1712 9.26552 21.1712 10.7345 20.5 11.9426L17.7222 16.9426C17.0167 18.2124 15.6783 19 14.2256 19H7.77778C6.32511 19 4.98663 18.2124 4.28115 16.9426L1.50337 11.9426C0.83221 10.7345 0.832209 9.26552 1.50337 8.05743L4.28115 3.05743C4.98663 1.78757 6.32511 1 7.77778 1L14.2256 1C15.6783 1 17.0167 1.78757 17.7222 3.05743L20.5 8.05743Z" stroke="#817D8F" stroke-width="2"/>
<path d="M14.5 10C14.5 11.933 12.933 13.5 11 13.5C9.067 13.5 7.5 11.933 7.5 10C7.5 8.067 9.067 6.5 11 6.5C12.933 6.5 14.5 8.067 14.5 10Z" stroke="#817D8F" stroke-width="2"/>
</svg>
