<svg width="0" height="0" class="hidden">
  <symbol fill="none" xmlns="http://www.w3.org/2000/svg" viewBox="0 0 20 20" id="support">
    <path d="M1 14V10C1 5.02944 5.02944 1 10 1C14.9706 1 19 5.02944 19 10V14M3 19C1.89543 19 1 18.1046 1 17V13C1 11.8954 1.89543 11 3 11C4.10457 11 5 11.8954 5 13V17C5 18.1046 4.10457 19 3 19ZM17 19C15.8954 19 15 18.1046 15 17V13C15 11.8954 15.8954 11 17 11C18.1046 11 19 11.8954 19 13V17C19 18.1046 18.1046 19 17 19Z" stroke="#817D8F" stroke-width="2" stroke-linejoin="round"></path>
  </symbol>
  <symbol fill="none" xmlns="http://www.w3.org/2000/svg" viewBox="0 0 22 20" id="settings">
    <path d="M20.5 8.05743C21.1712 9.26552 21.1712 10.7345 20.5 11.9426L17.7222 16.9426C17.0167 18.2124 15.6783 19 14.2256 19H7.77778C6.32511 19 4.98663 18.2124 4.28115 16.9426L1.50337 11.9426C0.83221 10.7345 0.832209 9.26552 1.50337 8.05743L4.28115 3.05743C4.98663 1.78757 6.32511 1 7.77778 1L14.2256 1C15.6783 1 17.0167 1.78757 17.7222 3.05743L20.5 8.05743Z" stroke="#817D8F" stroke-width="2"></path>
    <path d="M14.5 10C14.5 11.933 12.933 13.5 11 13.5C9.067 13.5 7.5 11.933 7.5 10C7.5 8.067 9.067 6.5 11 6.5C12.933 6.5 14.5 8.067 14.5 10Z" stroke="#817D8F" stroke-width="2"></path>
  </symbol>
  <symbol fill="none" xmlns="http://www.w3.org/2000/svg" viewBox="0 0 24 20" id="members">
    <path fill-rule="evenodd" clip-rule="evenodd" d="M9 2C7.34315 2 6 3.34315 6 5C6 6.65685 7.34315 8 9 8C10.6569 8 12 6.65685 12 5C12 3.34315 10.6569 2 9 2ZM4 5C4 2.23858 6.23858 0 9 0C11.7614 0 14 2.23858 14 5C14 7.76142 11.7614 10 9 10C6.23858 10 4 7.76142 4 5ZM15 2C14.9356 2 14.8718 2.00202 14.8086 2.00597C14.2574 2.0405 13.7826 1.62165 13.748 1.07044C13.7135 0.519239 14.1324 0.0444102 14.6836 0.00988382C14.7883 0.00332218 14.8938 0 15 0C17.7614 0 20 2.23858 20 5C20 7.76142 17.7614 10 15 10C14.8938 10 14.7883 9.99668 14.6836 9.99012C14.1324 9.95559 13.7135 9.48076 13.748 8.92955C13.7826 8.37835 14.2574 7.9595 14.8086 7.99403C14.8718 7.99798 14.9356 8 15 8C16.6568 8 18 6.65685 18 5C18 3.34315 16.6568 2 15 2ZM5 14C3.34315 14 2 15.3431 2 17V19C2 19.5523 1.55228 20 1 20C0.447715 20 0 19.5523 0 19V17C0 14.2386 2.23858 12 5 12H13C15.7614 12 18 14.2386 18 17V19C18 19.5523 17.5523 20 17 20C16.4477 20 16 19.5523 16 19V17C16 15.3431 14.6569 14 13 14H5ZM17.75 13C17.75 12.4477 18.1977 12 18.75 12H19C21.7614 12 24 14.2386 24 17V19C24 19.5523 23.5523 20 23 20C22.4477 20 22 19.5523 22 19V17C22 15.3431 20.6568 14 19 14H18.75C18.1977 14 17.75 13.5523 17.75 13Z" fill="#6826F7"></path>
  </symbol>
  <symbol fill="none" xmlns="http://www.w3.org/2000/svg" viewBox="0 0 24 24" id="tasks">
    <path d="M10 4H22M10 12H22M10 20H22M4 22C2.89543 22 2 21.1046 2 20C2 18.8954 2.89543 18 4 18C5.10457 18 6 18.8954 6 20C6 21.1046 5.10457 22 4 22ZM4 14C2.89543 14 2 13.1046 2 12C2 10.8954 2.89543 10 4 10C5.10457 10 6 10.8954 6 12C6 13.1046 5.10457 14 4 14ZM4 6C2.89543 6 2 5.10457 2 4C2 2.89543 2.89543 2 4 2C5.10457 2 6 2.89543 6 4C6 5.10457 5.10457 6 4 6Z" stroke="#817D8F" stroke-width="2" stroke-linecap="round" stroke-linejoin="round"></path>
  </symbol>
  <symbol fill="none" xmlns="http://www.w3.org/2000/svg" viewBox="0 0 24 24" id="stories">
    <path d="M2 4C2 2.89543 2.89543 2 4 2H8C9.10457 2 10 2.89543 10 4V12C10 13.1046 9.10457 14 8 14H4C2.89543 14 2 13.1046 2 12V4Z" stroke="#817D8F" stroke-width="2"></path>
    <path d="M14 4C14 2.89543 14.8954 2 16 2H20C21.1046 2 22 2.89543 22 4V20C22 21.1046 21.1046 22 20 22H16C14.8954 22 14 21.1046 14 20V4Z" stroke="#817D8F" stroke-width="2"></path>
  </symbol>
  <symbol fill="none" xmlns="http://www.w3.org/2000/svg" viewBox="0 0 24 24" id="projects">
    <path d="M14 2H8C5.79086 2 4 3.79086 4 6V18C4 20.2091 5.79086 22 8 22H16C18.2091 22 20 20.2091 20 18V8M14 2V6C14 7.10457 14.8954 8 16 8H20M14 2L20 8M9 13H15M9 17H12" stroke="#817D8F" stroke-width="2" stroke-linecap="round"></path>
  </symbol>
</svg>